<svg width="632" height="128" viewBox="0 0 632 128" fill="none" xmlns="http://www.w3.org/2000/svg">
<path d="M0.500977 0.451172L15.4775 13.9326L30.4551 27.415L30.5547 27.5049V105.387L30.4326 105.477L0.478516 127.647L0 128.002V0L0.500977 0.451172ZM137.718 71.1836L154.103 89.9561H179.342L191.251 82.5117L191.324 82.4658H221.415L220.994 82.96L191.639 117.415L191.549 117.521H141.865L141.779 117.438L105.437 83.1748L56.8164 127.628L56.7305 127.707H11.499L12.0811 127.184L74.3867 71.1582L74.4717 71.0811H137.628L137.718 71.1836ZM56.8164 0.453125L105.437 44.9062L141.779 10.6426L141.865 10.5605H191.549L191.639 10.666L220.994 45.1211L221.415 45.6152H191.324L191.251 45.5693L179.342 38.125H154.103L137.718 56.8975L137.628 57H74.4717L74.3867 56.9229L12.0811 0.897461L11.499 0.374023H56.7305L56.8164 0.453125Z" fill="#F08331"/>
<path d="M252.391 76.9805V50.7305H265.203L275.438 63.8555L285.691 50.7305H298.484V76.9805H288.25V62.9766L277.996 76.9805H272.879L262.625 62.9766V76.9805H252.391ZM319.441 58.3672L315.828 66.1211H323.035L319.441 58.3672ZM299.266 77.0195L313.348 50.7695H325.516L339.598 77.0195H328.074L326.004 72.5273H312.859L310.789 77.0195H299.266ZM366.004 63.8945C366.004 61.2383 364.5 59.0898 361.844 59.0898H350.633V68.6992H361.844C364.5 68.6992 366.004 66.5312 366.004 63.8945ZM340.398 50.7695H363.758C370.965 50.6719 376.316 56.7266 376.258 63.8945C376.316 71.0234 370.965 77.1172 363.758 77.0195H340.398V50.7695ZM379.305 77.0195V50.7695H410.027V57.4883H389.539V60.8477H410.027V66.9219H389.539V70.2812H410.027V77.0195H379.305ZM440.594 70.7695H454.363C455.242 70.7695 455.965 69.8906 455.965 69.0117C455.965 68.1328 455.242 67.2539 454.363 67.2539H440.594V70.7695ZM452.449 57H440.594V60.5352H452.449C453.328 60.5352 454.051 59.6367 454.051 58.7578C454.051 57.8789 453.328 57 452.449 57ZM460.613 63.4453C463.582 64.4023 465.574 66.668 465.574 69.9688C465.633 74.5586 461.766 77.0195 457.254 77.0195H430.359V50.7695H455.32C459.871 50.75 463.719 53.2305 463.66 57.8008C463.66 60.3203 462.488 62.2539 460.613 63.4453ZM474.715 50.7695L482.391 60.1836L490.086 50.7695H502.234L487.508 68.0547V77.0195H477.273V68.0547L462.547 50.7695H474.715ZM548.152 63.8945C548.152 61.2383 546.648 59.0898 543.992 59.0898H532.781V68.6992H543.992C546.648 68.6992 548.152 66.5312 548.152 63.8945ZM522.547 50.7695H545.906C553.113 50.6719 558.465 56.7266 558.406 63.8945C558.465 71.0234 553.113 77.1172 545.906 77.0195H522.547V50.7695ZM561.453 77.0195V50.7695H592.176V57.4883H571.688V60.8477H592.176V66.9219H571.688V70.2812H592.176V77.0195H561.453ZM613.133 50.0859C623.016 50.0859 631.043 52.9766 631.043 62.8984V64.8125C631.082 74.7344 622.996 77.6055 613.133 77.625C603.25 77.6055 595.164 74.7344 595.203 64.8125V62.8984C595.164 52.957 603.25 50.1055 613.133 50.0859ZM620.809 64.168V63.5234C620.867 59.2461 617.313 58.4648 613.133 58.4062C608.934 58.4648 605.379 59.2461 605.438 63.5234V64.168C605.379 68.4648 608.934 69.2461 613.133 69.3047C617.313 69.2461 620.867 68.4648 620.809 64.168Z" fill="#F08331"/>
</svg>
