<svg xmlns="http://www.w3.org/2000/svg" viewBox="0 0 16 19" preserveAspectRatio="none" shape-rendering="crispEdges"><rect x="0" y="0" width="1" height="1" fill="rgb(248,245,243)"/><rect x="1" y="0" width="1" height="1" fill="rgb(245,242,240)"/><rect x="2" y="0" width="1" height="1" fill="rgb(241,238,236)"/><rect x="3" y="0" width="1" height="1" fill="rgb(237,234,232)"/><rect x="4" y="0" width="1" height="1" fill="rgb(233,230,228)"/><rect x="5" y="0" width="1" height="1" fill="rgb(229,226,224)"/><rect x="6" y="0" width="1" height="1" fill="rgb(226,223,221)"/><rect x="7" y="0" width="1" height="1" fill="rgb(225,222,220)"/><rect x="8" y="0" width="1" height="1" fill="rgb(225,222,220)"/><rect x="9" y="0" width="1" height="1" fill="rgb(226,223,221)"/><rect x="10" y="0" width="1" height="1" fill="rgb(229,226,224)"/><rect x="11" y="0" width="1" height="1" fill="rgb(233,230,228)"/><rect x="12" y="0" width="1" height="1" fill="rgb(237,234,232)"/><rect x="13" y="0" width="1" height="1" fill="rgb(241,238,236)"/><rect x="14" y="0" width="1" height="1" fill="rgb(245,242,240)"/><rect x="15" y="0" width="1" height="1" fill="rgb(248,245,243)"/><rect x="0" y="1" width="1" height="1" fill="rgb(245,242,240)"/><rect x="1" y="1" width="1" height="1" fill="rgb(241,238,236)"/><rect x="2" y="1" width="1" height="1" fill="rgb(236,233,231)"/><rect x="3" y="1" width="1" height="1" fill="rgb(230,227,225)"/><rect x="4" y="1" width="1" height="1" fill="rgb(224,221,219)"/><rect x="5" y="1" width="1" height="1" fill="rgb(219,216,214)"/><rect x="6" y="1" width="1" height="1" fill="rgb(215,212,210)"/><rect x="7" y="1" width="1" height="1" fill="rgb(213,210,208)"/><rect x="8" y="1" width="1" height="1" fill="rgb(213,210,208)"/><rect x="9" y="1" width="1" height="1" fill="rgb(215,212,210)"/><rect x="10" y="1" width="1" height="1" fill="rgb(219,216,214)"/><rect x="11" y="1" width="1" height="1" fill="rgb(224,221,219)"/><rect x="12" y="1" width="1" height="1" fill="rgb(230,227,225)"/><rect x="13" y="1" width="1" height="1" fill="rgb(236,233,231)"/><rect x="14" y="1" width="1" height="1" fill="rgb(241,238,236)"/><rect x="15" y="1" width="1" height="1" fill="rgb(245,242,240)"/><rect x="0" y="2" width="1" height="1" fill="rgb(242,239,237)"/><rect x="1" y="2" width="1" height="1" fill="rgb(236,233,231)"/><rect x="2" y="2" width="1" height="1" fill="rgb(230,227,225)"/><rect x="3" y="2" width="1" height="1" fill="rgb(222,219,217)"/><rect x="4" y="2" width="1" height="1" fill="rgb(215,212,210)"/><rect x="5" y="2" width="1" height="1" fill="rgb(208,205,203)"/><rect x="6" y="2" width="1" height="1" fill="rgb(203,200,198)"/><rect x="7" y="2" width="1" height="1" fill="rgb(200,197,195)"/><rect x="8" y="2" width="1" height="1" fill="rgb(200,197,195)"/><rect x="9" y="2" width="1" height="1" fill="rgb(203,200,198)"/><rect x="10" y="2" width="1" height="1" fill="rgb(208,205,203)"/><rect x="11" y="2" width="1" height="1" fill="rgb(215,212,210)"/><rect x="12" y="2" width="1" height="1" fill="rgb(222,219,217)"/><rect x="13" y="2" width="1" height="1" fill="rgb(230,227,225)"/><rect x="14" y="2" width="1" height="1" fill="rgb(236,233,231)"/><rect x="15" y="2" width="1" height="1" fill="rgb(242,239,237)"/><rect x="0" y="3" width="1" height="1" fill="rgb(238,235,233)"/><rect x="1" y="3" width="1" height="1" fill="rgb(231,228,226)"/><rect x="2" y="3" width="1" height="1" fill="rgb(223,220,218)"/><rect x="3" y="3" width="1" height="1" fill="rgb(213,210,208)"/><rect x="4" y="3" width="1" height="1" fill="rgb(204,201,199)"/><rect x="5" y="3" width="1" height="1" fill="rgb(195,192,190)"/><rect x="6" y="3" width="1" height="1" fill="rgb(189,186,184)"/><rect x="7" y="3" width="1" height="1" fill="rgb(185,182,180)"/><rect x="8" y="3" width="1" height="1" fill="rgb(185,182,180)"/><rect x="9" y="3" width="1" height="1" fill="rgb(189,186,184)"/><rect x="10" y="3" width="1" height="1" fill="rgb(195,192,190)"/><rect x="11" y="3" width="1" height="1" fill="rgb(204,201,199)"/><rect x="12" y="3" width="1" height="1" fill="rgb(213,210,208)"/><rect x="13" y="3" width="1" height="1" fill="rgb(223,220,218)"/><rect x="14" y="3" width="1" height="1" fill="rgb(231,228,226)"/><rect x="15" y="3" width="1" height="1" fill="rgb(238,235,233)"/><rect x="0" y="4" width="1" height="1" fill="rgb(235,232,230)"/><rect x="1" y="4" width="1" height="1" fill="rgb(226,223,221)"/><rect x="2" y="4" width="1" height="1" fill="rgb(216,213,211)"/><rect x="3" y="4" width="1" height="1" fill="rgb(204,201,199)"/><rect x="4" y="4" width="1" height="1" fill="rgb(193,190,188)"/><rect x="5" y="4" width="1" height="1" fill="rgb(182,179,177)"/><rect x="6" y="4" width="1" height="1" fill="rgb(175,172,170)"/><rect x="7" y="4" width="1" height="1" fill="rgb(170,167,165)"/><rect x="8" y="4" width="1" height="1" fill="rgb(170,167,165)"/><rect x="9" y="4" width="1" height="1" fill="rgb(175,172,170)"/><rect x="10" y="4" width="1" height="1" fill="rgb(182,179,177)"/><rect x="11" y="4" width="1" height="1" fill="rgb(193,190,188)"/><rect x="12" y="4" width="1" height="1" fill="rgb(204,201,199)"/><rect x="13" y="4" width="1" height="1" fill="rgb(216,213,211)"/><rect x="14" y="4" width="1" height="1" fill="rgb(226,223,221)"/><rect x="15" y="4" width="1" height="1" fill="rgb(235,232,230)"/><rect x="0" y="5" width="1" height="1" fill="rgb(231,228,226)"/><rect x="1" y="5" width="1" height="1" fill="rgb(221,218,216)"/><rect x="2" y="5" width="1" height="1" fill="rgb(209,206,204)"/><rect x="3" y="5" width="1" height="1" fill="rgb(196,193,191)"/><rect x="4" y="5" width="1" height="1" fill="rgb(182,179,177)"/><rect x="5" y="5" width="1" height="1" fill="rgb(170,167,165)"/><rect x="6" y="5" width="1" height="1" fill="rgb(161,158,156)"/><rect x="7" y="5" width="1" height="1" fill="rgb(156,153,151)"/><rect x="8" y="5" width="1" height="1" fill="rgb(156,153,151)"/><rect x="9" y="5" width="1" height="1" fill="rgb(161,158,156)"/><rect x="10" y="5" width="1" height="1" fill="rgb(170,167,165)"/><rect x="11" y="5" width="1" height="1" fill="rgb(182,179,177)"/><rect x="12" y="5" width="1" height="1" fill="rgb(196,193,191)"/><rect x="13" y="5" width="1" height="1" fill="rgb(209,206,204)"/><rect x="14" y="5" width="1" height="1" fill="rgb(221,218,216)"/><rect x="15" y="5" width="1" height="1" fill="rgb(231,228,226)"/><rect x="0" y="6" width="1" height="1" fill="rgb(228,225,223)"/><rect x="1" y="6" width="1" height="1" fill="rgb(217,214,212)"/><rect x="2" y="6" width="1" height="1" fill="rgb(203,200,198)"/><rect x="3" y="6" width="1" height="1" fill="rgb(188,185,183)"/><rect x="4" y="6" width="1" height="1" fill="rgb(173,170,168)"/><rect x="5" y="6" width="1" height="1" fill="rgb(159,156,154)"/><rect x="6" y="6" width="1" height="1" fill="rgb(149,146,144)"/><rect x="7" y="6" width="1" height="1" fill="rgb(143,140,138)"/><rect x="8" y="6" width="1" height="1" fill="rgb(143,140,138)"/><rect x="9" y="6" width="1" height="1" fill="rgb(149,146,144)"/><rect x="10" y="6" width="1" height="1" fill="rgb(159,156,154)"/><rect x="11" y="6" width="1" height="1" fill="rgb(173,170,168)"/><rect x="12" y="6" width="1" height="1" fill="rgb(188,185,183)"/><rect x="13" y="6" width="1" height="1" fill="rgb(203,200,198)"/><rect x="14" y="6" width="1" height="1" fill="rgb(217,214,212)"/><rect x="15" y="6" width="1" height="1" fill="rgb(228,225,223)"/><rect x="0" y="7" width="1" height="1" fill="rgb(226,223,221)"/><rect x="1" y="7" width="1" height="1" fill="rgb(214,211,209)"/><rect x="2" y="7" width="1" height="1" fill="rgb(199,196,194)"/><rect x="3" y="7" width="1" height="1" fill="rgb(183,180,178)"/><rect x="4" y="7" width="1" height="1" fill="rgb(166,163,161)"/><rect x="5" y="7" width="1" height="1" fill="rgb(151,148,146)"/><rect x="6" y="7" width="1" height="1" fill="rgb(140,137,135)"/><rect x="7" y="7" width="1" height="1" fill="rgb(134,131,129)"/><rect x="8" y="7" width="1" height="1" fill="rgb(134,131,129)"/><rect x="9" y="7" width="1" height="1" fill="rgb(140,137,135)"/><rect x="10" y="7" width="1" height="1" fill="rgb(151,148,146)"/><rect x="11" y="7" width="1" height="1" fill="rgb(166,163,161)"/><rect x="12" y="7" width="1" height="1" fill="rgb(183,180,178)"/><rect x="13" y="7" width="1" height="1" fill="rgb(199,196,194)"/><rect x="14" y="7" width="1" height="1" fill="rgb(214,211,209)"/><rect x="15" y="7" width="1" height="1" fill="rgb(226,223,221)"/><rect x="0" y="8" width="1" height="1" fill="rgb(225,222,220)"/><rect x="1" y="8" width="1" height="1" fill="rgb(212,209,207)"/><rect x="2" y="8" width="1" height="1" fill="rgb(197,194,192)"/><rect x="3" y="8" width="1" height="1" fill="rgb(180,177,175)"/><rect x="4" y="8" width="1" height="1" fill="rgb(163,160,158)"/><rect x="5" y="8" width="1" height="1" fill="rgb(147,144,142)"/><rect x="6" y="8" width="1" height="1" fill="rgb(136,133,131)"/><rect x="7" y="8" width="1" height="1" fill="rgb(129,126,124)"/><rect x="8" y="8" width="1" height="1" fill="rgb(129,126,124)"/><rect x="9" y="8" width="1" height="1" fill="rgb(136,133,131)"/><rect x="10" y="8" width="1" height="1" fill="rgb(147,144,142)"/><rect x="11" y="8" width="1" height="1" fill="rgb(163,160,158)"/><rect x="12" y="8" width="1" height="1" fill="rgb(180,177,175)"/><rect x="13" y="8" width="1" height="1" fill="rgb(197,194,192)"/><rect x="14" y="8" width="1" height="1" fill="rgb(212,209,207)"/><rect x="15" y="8" width="1" height="1" fill="rgb(225,222,220)"/><rect x="0" y="9" width="1" height="1" fill="rgb(225,222,220)"/><rect x="1" y="9" width="1" height="1" fill="rgb(212,209,207)"/><rect x="2" y="9" width="1" height="1" fill="rgb(197,194,192)"/><rect x="3" y="9" width="1" height="1" fill="rgb(180,177,175)"/><rect x="4" y="9" width="1" height="1" fill="rgb(163,160,158)"/><rect x="5" y="9" width="1" height="1" fill="rgb(147,144,142)"/><rect x="6" y="9" width="1" height="1" fill="rgb(136,133,131)"/><rect x="7" y="9" width="1" height="1" fill="rgb(129,126,124)"/><rect x="8" y="9" width="1" height="1" fill="rgb(129,126,124)"/><rect x="9" y="9" width="1" height="1" fill="rgb(136,133,131)"/><rect x="10" y="9" width="1" height="1" fill="rgb(147,144,142)"/><rect x="11" y="9" width="1" height="1" fill="rgb(163,160,158)"/><rect x="12" y="9" width="1" height="1" fill="rgb(180,177,175)"/><rect x="13" y="9" width="1" height="1" fill="rgb(197,194,192)"/><rect x="14" y="9" width="1" height="1" fill="rgb(212,209,207)"/><rect x="15" y="9" width="1" height="1" fill="rgb(225,222,220)"/><rect x="0" y="10" width="1" height="1" fill="rgb(226,223,221)"/><rect x="1" y="10" width="1" height="1" fill="rgb(214,211,209)"/><rect x="2" y="10" width="1" height="1" fill="rgb(199,196,194)"/><rect x="3" y="10" width="1" height="1" fill="rgb(183,180,178)"/><rect x="4" y="10" width="1" height="1" fill="rgb(166,163,161)"/><rect x="5" y="10" width="1" height="1" fill="rgb(151,148,146)"/><rect x="6" y="10" width="1" height="1" fill="rgb(140,137,135)"/><rect x="7" y="10" width="1" height="1" fill="rgb(134,131,129)"/><rect x="8" y="10" width="1" height="1" fill="rgb(134,131,129)"/><rect x="9" y="10" width="1" height="1" fill="rgb(140,137,135)"/><rect x="10" y="10" width="1" height="1" fill="rgb(151,148,146)"/><rect x="11" y="10" width="1" height="1" fill="rgb(166,163,161)"/><rect x="12" y="10" width="1" height="1" fill="rgb(183,180,178)"/><rect x="13" y="10" width="1" height="1" fill="rgb(199,196,194)"/><rect x="14" y="10" width="1" height="1" fill="rgb(214,211,209)"/><rect x="15" y="10" width="1" height="1" fill="rgb(226,223,221)"/><rect x="0" y="11" width="1" height="1" fill="rgb(228,225,223)"/><rect x="1" y="11" width="1" height="1" fill="rgb(217,214,212)"/><rect x="2" y="11" width="1" height="1" fill="rgb(203,200,198)"/><rect x="3" y="11" width="1" height="1" fill="rgb(188,185,183)"/><rect x="4" y="11" width="1" height="1" fill="rgb(173,170,168)"/><rect x="5" y="11" width="1" height="1" fill="rgb(159,156,154)"/><rect x="6" y="11" width="1" height="1" fill="rgb(149,146,144)"/><rect x="7" y="11" width="1" height="1" fill="rgb(143,140,138)"/><rect x="8" y="11" width="1" height="1" fill="rgb(143,140,138)"/><rect x="9" y="11" width="1" height="1" fill="rgb(149,146,144)"/><rect x="10" y="11" width="1" height="1" fill="rgb(159,156,154)"/><rect x="11" y="11" width="1" height="1" fill="rgb(173,170,168)"/><rect x="12" y="11" width="1" height="1" fill="rgb(188,185,183)"/><rect x="13" y="11" width="1" height="1" fill="rgb(203,200,198)"/><rect x="14" y="11" width="1" height="1" fill="rgb(217,214,212)"/><rect x="15" y="11" width="1" height="1" fill="rgb(228,225,223)"/><rect x="0" y="12" width="1" height="1" fill="rgb(231,228,226)"/><rect x="1" y="12" width="1" height="1" fill="rgb(221,218,216)"/><rect x="2" y="12" width="1" height="1" fill="rgb(209,206,204)"/><rect x="3" y="12" width="1" height="1" fill="rgb(196,193,191)"/><rect x="4" y="12" width="1" height="1" fill="rgb(182,179,177)"/><rect x="5" y="12" width="1" height="1" fill="rgb(170,167,165)"/><rect x="6" y="12" width="1" height="1" fill="rgb(161,158,156)"/><rect x="7" y="12" width="1" height="1" fill="rgb(156,153,151)"/><rect x="8" y="12" width="1" height="1" fill="rgb(156,153,151)"/><rect x="9" y="12" width="1" height="1" fill="rgb(161,158,156)"/><rect x="10" y="12" width="1" height="1" fill="rgb(170,167,165)"/><rect x="11" y="12" width="1" height="1" fill="rgb(182,179,177)"/><rect x="12" y="12" width="1" height="1" fill="rgb(196,193,191)"/><rect x="13" y="12" width="1" height="1" fill="rgb(209,206,204)"/><rect x="14" y="12" width="1" height="1" fill="rgb(221,218,216)"/><rect x="15" y="12" width="1" height="1" fill="rgb(231,228,226)"/><rect x="0" y="13" width="1" height="1" fill="rgb(235,232,230)"/><rect x="1" y="13" width="1" height="1" fill="rgb(226,223,221)"/><rect x="2" y="13" width="1" height="1" fill="rgb(216,213,211)"/><rect x="3" y="13" width="1" height="1" fill="rgb(204,201,199)"/><rect x="4" y="13" width="1" height="1" fill="rgb(193,190,188)"/><rect x="5" y="13" width="1" height="1" fill="rgb(182,179,177)"/><rect x="6" y="13" width="1" height="1" fill="rgb(175,172,170)"/><rect x="7" y="13" width="1" height="1" fill="rgb(170,167,165)"/><rect x="8" y="13" width="1" height="1" fill="rgb(170,167,165)"/><rect x="9" y="13" width="1" height="1" fill="rgb(175,172,170)"/><rect x="10" y="13" width="1" height="1" fill="rgb(182,179,177)"/><rect x="11" y="13" width="1" height="1" fill="rgb(193,190,188)"/><rect x="12" y="13" width="1" height="1" fill="rgb(204,201,199)"/><rect x="13" y="13" width="1" height="1" fill="rgb(216,213,211)"/><rect x="14" y="13" width="1" height="1" fill="rgb(226,223,221)"/><rect x="15" y="13" width="1" height="1" fill="rgb(235,232,230)"/><rect x="0" y="14" width="1" height="1" fill="rgb(238,235,233)"/><rect x="1" y="14" width="1" height="1" fill="rgb(231,228,226)"/><rect x="2" y="14" width="1" height="1" fill="rgb(223,220,218)"/><rect x="3" y="14" width="1" height="1" fill="rgb(213,210,208)"/><rect x="4" y="14" width="1" height="1" fill="rgb(204,201,199)"/><rect x="5" y="14" width="1" height="1" fill="rgb(195,192,190)"/><rect x="6" y="14" width="1" height="1" fill="rgb(189,186,184)"/><rect x="7" y="14" width="1" height="1" fill="rgb(185,182,180)"/><rect x="8" y="14" width="1" height="1" fill="rgb(185,182,180)"/><rect x="9" y="14" width="1" height="1" fill="rgb(189,186,184)"/><rect x="10" y="14" width="1" height="1" fill="rgb(195,192,190)"/><rect x="11" y="14" width="1" height="1" fill="rgb(204,201,199)"/><rect x="12" y="14" width="1" height="1" fill="rgb(213,210,208)"/><rect x="13" y="14" width="1" height="1" fill="rgb(223,220,218)"/><rect x="14" y="14" width="1" height="1" fill="rgb(231,228,226)"/><rect x="15" y="14" width="1" height="1" fill="rgb(238,235,233)"/><rect x="0" y="15" width="1" height="1" fill="rgb(242,239,237)"/><rect x="1" y="15" width="1" height="1" fill="rgb(236,233,231)"/><rect x="2" y="15" width="1" height="1" fill="rgb(230,227,225)"/><rect x="3" y="15" width="1" height="1" fill="rgb(222,219,217)"/><rect x="4" y="15" width="1" height="1" fill="rgb(215,212,210)"/><rect x="5" y="15" width="1" height="1" fill="rgb(208,205,203)"/><rect x="6" y="15" width="1" height="1" fill="rgb(203,200,198)"/><rect x="7" y="15" width="1" height="1" fill="rgb(200,197,195)"/><rect x="8" y="15" width="1" height="1" fill="rgb(200,197,195)"/><rect x="9" y="15" width="1" height="1" fill="rgb(203,200,198)"/><rect x="10" y="15" width="1" height="1" fill="rgb(208,205,203)"/><rect x="11" y="15" width="1" height="1" fill="rgb(215,212,210)"/><rect x="12" y="15" width="1" height="1" fill="rgb(222,219,217)"/><rect x="13" y="15" width="1" height="1" fill="rgb(230,227,225)"/><rect x="14" y="15" width="1" height="1" fill="rgb(236,233,231)"/><rect x="15" y="15" width="1" height="1" fill="rgb(242,239,237)"/><rect x="0" y="16" width="1" height="1" fill="rgb(245,242,240)"/><rect x="1" y="16" width="1" height="1" fill="rgb(241,238,236)"/><rect x="2" y="16" width="1" height="1" fill="rgb(236,233,231)"/><rect x="3" y="16" width="1" height="1" fill="rgb(230,227,225)"/><rect x="4" y="16" width="1" height="1" fill="rgb(224,221,219)"/><rect x="5" y="16" width="1" height="1" fill="rgb(219,216,214)"/><rect x="6" y="16" width="1" height="1" fill="rgb(215,212,210)"/><rect x="7" y="16" width="1" height="1" fill="rgb(213,210,208)"/><rect x="8" y="16" width="1" height="1" fill="rgb(213,210,208)"/><rect x="9" y="16" width="1" height="1" fill="rgb(215,212,210)"/><rect x="10" y="16" width="1" height="1" fill="rgb(219,216,214)"/><rect x="11" y="16" width="1" height="1" fill="rgb(224,221,219)"/><rect x="12" y="16" width="1" height="1" fill="rgb(230,227,225)"/><rect x="13" y="16" width="1" height="1" fill="rgb(236,233,231)"/><rect x="14" y="16" width="1" height="1" fill="rgb(241,238,236)"/><rect x="15" y="16" width="1" height="1" fill="rgb(245,242,240)"/><rect x="0" y="17" width="1" height="1" fill="rgb(248,245,243)"/><rect x="1" y="17" width="1" height="1" fill="rgb(245,242,240)"/><rect x="2" y="17" width="1" height="1" fill="rgb(241,238,236)"/><rect x="3" y="17" width="1" height="1" fill="rgb(237,234,232)"/><rect x="4" y="17" width="1" height="1" fill="rgb(233,230,228)"/><rect x="5" y="17" width="1" height="1" fill="rgb(229,226,224)"/><rect x="6" y="17" width="1" height="1" fill="rgb(226,223,221)"/><rect x="7" y="17" width="1" height="1" fill="rgb(225,222,220)"/><rect x="8" y="17" width="1" height="1" fill="rgb(225,222,220)"/><rect x="9" y="17" width="1" height="1" fill="rgb(226,223,221)"/><rect x="10" y="17" width="1" height="1" fill="rgb(229,226,224)"/><rect x="11" y="17" width="1" height="1" fill="rgb(233,230,228)"/><rect x="12" y="17" width="1" height="1" fill="rgb(237,234,232)"/><rect x="13" y="17" width="1" height="1" fill="rgb(241,238,236)"/><rect x="14" y="17" width="1" height="1" fill="rgb(245,242,240)"/><rect x="15" y="17" width="1" height="1" fill="rgb(248,245,243)"/><rect x="0" y="18" width="1" height="1" fill="rgb(250,247,245)"/><rect x="1" y="18" width="1" height="1" fill="rgb(248,245,243)"/><rect x="2" y="18" width="1" height="1" fill="rgb(245,242,240)"/><rect x="3" y="18" width="1" height="1" fill="rgb(242,239,237)"/><rect x="4" y="18" width="1" height="1" fill="rgb(239,236,234)"/><rect x="5" y="18" width="1" height="1" fill="rgb(237,234,232)"/><rect x="6" y="18" width="1" height="1" fill="rgb(235,232,230)"/><rect x="7" y="18" width="1" height="1" fill="rgb(234,231,229)"/><rect x="8" y="18" width="1" height="1" fill="rgb(234,231,229)"/><rect x="9" y="18" width="1" height="1" fill="rgb(235,232,230)"/><rect x="10" y="18" width="1" height="1" fill="rgb(237,234,232)"/><rect x="11" y="18" width="1" height="1" fill="rgb(239,236,234)"/><rect x="12" y="18" width="1" height="1" fill="rgb(242,239,237)"/><rect x="13" y="18" width="1" height="1" fill="rgb(245,242,240)"/><rect x="14" y="18" width="1" height="1" fill="rgb(248,245,243)"/><rect x="15" y="18" width="1" height="1" fill="rgb(250,247,245)"/></svg>